<svg xmlns="http://www.w3.org/2000/svg" viewBox="0 0 40 40"><defs><style>.cls-1{fill:none;stroke-width:2.88px;}.cls-1,.cls-5{stroke:#fff;stroke-miterlimit:10;}.cls-2{fill:#e37668;}.cls-3,.cls-5{fill:#11a0d9;}.cls-4{fill:#fff;}.cls-5{stroke-width:1.44px;}</style></defs><title>emmy</title><g id="IDEA_PluginIcon" data-name="IDEA PluginIcon"><g id="Icon"><path class="cls-1" d="M17.71,38A15.7,15.7,0,1,1,33.4,22.29h0A15.69,15.69,0,0,1,17.71,38Z"/><path class="cls-2" d="M17.69,6.6A15.7,15.7,0,0,0,4.19,30.3L25.7,8.79A15.64,15.64,0,0,0,17.69,6.6Z"/><path class="cls-3" d="M25.7,8.79,4.19,30.3a15.7,15.7,0,0,0,29.21-8h0A15.66,15.66,0,0,0,25.7,8.79Z"/><path class="cls-4" d="M28,31a1.56,1.56,0,0,0-.71-.68l-.08-4a21.34,21.34,0,0,0-.79-5.51A1.8,1.8,0,0,0,28,19.24a2.53,2.53,0,0,0-.56-2.13,2.75,2.75,0,0,0-1.92-.72,2,2,0,0,0-.71-2C23.34,13,22,14,21.72,15a9.49,9.49,0,0,0-2.86-.73h0a14.66,14.66,0,0,0-2.65,0h0q-7.8.86-8.11,12l-.08,4a1.58,1.58,0,0,0-.67.61,13.45,13.45,0,0,0,8,4.63l.38,0-.18-2.93c-2.41-1.06-4.14-4-4.14-7.37,0-2.08,12.33-2.23,12.33,0,0,3.29-1.61,6.11-3.89,7.25l-.19,3.05.44,0A13.4,13.4,0,0,0,28,31Z"/><path class="cls-5" d="M33.4,11.2A4.6,4.6,0,1,1,38,6.6h0A4.61,4.61,0,0,1,33.4,11.2Z"/></g></g></svg>