<svg xmlns="http://www.w3.org/2000/svg" xmlns:xlink="http://www.w3.org/1999/xlink" width="40" height="40" viewBox="0 0 40 40">
  <defs>
    <style>
      .a, .b {
        fill: none;
      }

      .b, .g {
        stroke: #fff;
        stroke-miterlimit: 10;
      }

      .b {
        stroke-width: 2.88px;
      }

      .c {
        fill: #e37668;
      }

      .d, .g {
        fill: #11a0d9;
      }

      .e {
        clip-path: url(#a);
      }

      .f {
        fill: #fff;
      }

      .g {
        stroke-width: 1.44px;
      }
    </style>
    <clipPath id="a">
      <circle class="a" cx="17.7" cy="22.3" r="13.46"/>
    </clipPath>
  </defs>
  <title>EmmyLog2</title>
  <g>
    <g>
      <path class="b" d="M17.71,38A15.7,15.7,0,1,1,33.4,22.29h0A15.69,15.69,0,0,1,17.71,38Z"/>
      <g>
        <path class="c" d="M17.69,6.6A15.7,15.7,0,0,0,4.19,30.3L25.7,8.79A15.64,15.64,0,0,0,17.69,6.6Z"/>
        <path class="d" d="M25.7,8.79,4.19,30.3a15.7,15.7,0,0,0,29.21-8h0A15.66,15.66,0,0,0,25.7,8.79Z"/>
      </g>
      <g class="e">
        <path class="f" d="M21.72,15c.32-1,1.62-2,3.12-.57a2,2,0,0,1,.71,2,2.75,2.75,0,0,1,1.92.72A2.53,2.53,0,0,1,28,19.24a1.8,1.8,0,0,1-1.63,1.53,21.34,21.34,0,0,1,.79,5.51l.08,4c.78.35,1.13,1.18,1.05,2.48s-1,1.9-2.85,1.79c.28.57-.19.92-1.4,1.06a18.65,18.65,0,0,1-4.46-.13l.19-3.05c2.28-1.14,3.89-4,3.89-7.25,0-2.23-12.33-2.08-12.33,0,0,3.41,1.73,6.31,4.14,7.37l.18,2.93a18.65,18.65,0,0,1-4.46.13c-1.21-.14-1.68-.49-1.4-1.06C8,34.67,7,34.07,7,32.77s.27-2.13,1-2.48l.08-4q.3-11.16,8.11-12h0a14.66,14.66,0,0,1,2.65,0h0A9.49,9.49,0,0,1,21.72,15Z"/>
      </g>
    </g>
    <path class="g" d="M33.4,11.2A4.6,4.6,0,1,1,38,6.6h0A4.61,4.61,0,0,1,33.4,11.2Z"/>
  </g>
</svg>
