<svg xmlns="http://www.w3.org/2000/svg" xmlns:xlink="http://www.w3.org/1999/xlink" width="40" height="40" viewBox="0 0 40 40">
  <defs>
    <style>
      .a, .c {
        fill: none;
      }

      .b, .g {
        fill: #fff;
      }

      .b {
        opacity: 0;
      }

      .c, .h {
        stroke: #fff;
        stroke-miterlimit: 10;
      }

      .c {
        stroke-width: 2.6px;
      }

      .d {
        fill: #e37668;
      }

      .e, .h {
        fill: #11a0d9;
      }

      .f {
        clip-path: url(#a);
      }

      .h {
        stroke-width: 1.3px;
      }
    </style>
    <clipPath id="a">
      <circle class="a" cx="20" cy="20" r="12.16"/>
    </clipPath>
  </defs>
  <title>未标题-2</title>
  <g>
    <rect class="a" x="0.57" y="0.57" width="38.86" height="38.86"/>
    <g>
      <rect class="b" width="40" height="40"/>
      <g>
        <path class="c" d="M20,34.19A14.19,14.19,0,1,1,34.19,20h0A14.2,14.2,0,0,1,20,34.19Z"/>
        <g>
          <path class="d" d="M20,5.81A14.19,14.19,0,0,0,7.79,27.23L27.23,7.79A14.11,14.11,0,0,0,20,5.81Z"/>
          <path class="e" d="M27.23,7.79,7.79,27.23A14.19,14.19,0,0,0,34.19,20h0A14.2,14.2,0,0,0,27.23,7.79Z"/>
        </g>
        <g class="f">
          <path class="g" d="M23.63,13.39c.29-.92,1.47-1.77,2.82-.51a1.83,1.83,0,0,1,.65,1.78,2.52,2.52,0,0,1,1.73.65,2.32,2.32,0,0,1,.5,1.93,1.62,1.62,0,0,1-1.47,1.38,19.72,19.72,0,0,1,.72,5l.07,3.62c.7.32,1,1.07,1,2.25s-.93,1.71-2.58,1.61c.25.51-.17.83-1.27,1a16.49,16.49,0,0,1-4-.12l.17-2.75a7.23,7.23,0,0,0,3.51-6.56c0-2-11.14-1.88-11.14,0,0,3.08,1.56,5.7,3.74,6.66l.16,2.65a17,17,0,0,1-4,.12c-1.1-.13-1.53-.45-1.28-1-1.64.1-2.5-.44-2.57-1.61s.25-1.93.95-2.25l.07-3.62q.29-10.1,7.33-10.85v0a12.83,12.83,0,0,1,2.4,0h0A8.51,8.51,0,0,1,23.63,13.39Z"/>
        </g>
      </g>
      <path class="h" d="M34.19,10a4.16,4.16,0,1,1,4.15-4.16h0A4.15,4.15,0,0,1,34.19,10Z"/>
    </g>
  </g>
</svg>
