<svg xmlns="http://www.w3.org/2000/svg" viewBox="0 0 16 16"><defs><style>.cls-1{fill:none;stroke-width:1.16px;}.cls-1,.cls-5{stroke:#fff;stroke-miterlimit:10;}.cls-2{fill:#e37668;}.cls-3,.cls-5{fill:#11a0d9;}.cls-4{fill:#fff;}.cls-5{stroke-width:0.58px;}</style></defs><title>emmy</title><g id="IDEA_Icons" data-name="IDEA Icons"><path class="cls-1" d="M7.08,15.25A6.33,6.33,0,1,1,13.4,8.92h0A6.32,6.32,0,0,1,7.08,15.25Z"/><path class="cls-2" d="M7.07,2.6A6.33,6.33,0,0,0,.75,8.93a6.27,6.27,0,0,0,.88,3.22L10.3,3.48A6.33,6.33,0,0,0,7.07,2.6Z"/><path class="cls-3" d="M10.3,3.48,1.63,12.15A6.33,6.33,0,0,0,13.4,8.93h0A6.34,6.34,0,0,0,10.3,3.48Z"/><path class="cls-4" d="M10.93,12.14l0-1.61a8.84,8.84,0,0,0-.32-2.22.71.71,0,0,0,.65-.62A1,1,0,0,0,11,6.83a1.12,1.12,0,0,0-.77-.28.83.83,0,0,0-.29-.8A.71.71,0,0,0,8.69,6a3.74,3.74,0,0,0-1.15-.29h0a6.37,6.37,0,0,0-1.07,0h0Q3.34,6,3.21,10.53l0,1.61a.63.63,0,0,0-.26.25,5.35,5.35,0,0,0,3.18,1.86h.17l-.07-1.18a3.19,3.19,0,0,1-1.67-3c0-.84,5-.9,5,0A3.21,3.21,0,0,1,7.92,13l-.08,1.23.2,0a5.45,5.45,0,0,0,3.18-1.84A.71.71,0,0,0,10.93,12.14Z"/><path class="cls-5" d="M13.4,4.45A1.85,1.85,0,1,1,15.25,2.6h0A1.85,1.85,0,0,1,13.4,4.45Z"/></g></svg>