<?xml version="1.0" encoding="iso-8859-1"?>
<!-- Generator: Adobe Illustrator 23.0.3, SVG Export Plug-In . SVG Version: 6.00 Build 0)  -->
<svg version="1.1" xmlns="http://www.w3.org/2000/svg" xmlns:xlink="http://www.w3.org/1999/xlink" x="0px" y="0px"
	 viewBox="0 0 16 16" enable-background="new 0 0 16 16" xml:space="preserve">
<g id="&#x56FE;&#x5C42;_1">
</g>
<g id="IDEA_PluginIcon">
</g>
<g id="IDEA_Icons">
	<g id="Icon_1_">
		<g>
			<path fill="none" stroke="#FFFFFF" stroke-width="1.16" stroke-miterlimit="10" d="M7.078,15.25
				c-3.493,0.002-6.326-2.828-6.328-6.32C0.748,5.437,3.578,2.604,7.07,2.602c3.493-0.002,6.326,2.828,6.328,6.32
				c0,0.002,0,0.003,0,0.005C13.397,12.418,10.568,15.248,7.078,15.25z"/>
			<g>
				<path fill="#E37668" d="M7.07,2.602C3.578,2.604,0.748,5.437,0.75,8.93c0.001,1.176,0.322,2.276,0.882,3.219l8.664-8.664
					C9.351,2.923,8.249,2.601,7.07,2.602z"/>
				<path fill="#11A0D9" d="M10.296,3.484l-8.664,8.664c1.102,1.858,3.129,3.103,5.446,3.102c3.491-0.002,6.32-2.832,6.32-6.323
					c0-0.002,0-0.003,0-0.005C13.397,6.608,12.152,4.585,10.296,3.484z"/>
			</g>
			<g>
				<defs>
					<circle id="SVGID_9_" cx="7.074" cy="8.926" r="5.421"/>
				</defs>
				<clipPath id="SVGID_2_">
					<use xlink:href="#SVGID_9_"  overflow="visible"/>
				</clipPath>
				<g clip-path="url(#SVGID_2_)">
					<path fill="#FFFFFF" d="M8.692,5.981c0.131-0.41,0.654-0.788,1.258-0.227c0.253,0.234,0.349,0.499,0.287,0.794
						c0.361,0.024,0.619,0.12,0.774,0.287c0.27,0.294,0.251,0.673,0.223,0.859c-0.044,0.291-0.3,0.607-0.656,0.616
						c0.19,0.629,0.296,1.369,0.32,2.221l0.032,1.613c0.312,0.144,0.453,0.478,0.423,1.002s-0.413,0.764-1.147,0.72
						c0.111,0.229-0.078,0.371-0.567,0.427c-0.49,0.056-1.088,0.039-1.794-0.052l0.076-1.229c0.918-0.461,1.567-1.596,1.567-2.922
						c0-0.897-4.969-0.838-4.969,0c0,1.373,0.697,2.541,1.668,2.969l0.073,1.182c-0.706,0.091-1.304,0.108-1.794,0.052
						c-0.49-0.057-0.679-0.198-0.567-0.427c-0.735,0.044-1.118-0.196-1.147-0.72c-0.03-0.524,0.111-0.858,0.423-1.002l0.033-1.613
						c0.082-2.997,1.171-4.609,3.266-4.837l0.001-0.006c0.355-0.032,0.713-0.032,1.068,0.002V5.69
						C7.937,5.726,8.326,5.824,8.692,5.981z"/>
				</g>
			</g>
		</g>
		<path fill="#11A0D9" stroke="#FFFFFF" stroke-width="0.58" stroke-miterlimit="10" d="M13.399,4.454
			c-1.023,0.001-1.853-0.828-1.853-1.851s0.828-1.853,1.851-1.853c1.023-0.001,1.853,0.828,1.853,1.851c0,0,0,0.001,0,0.001
			C15.25,3.624,14.422,4.453,13.399,4.454z"/>
	</g>
</g>
</svg>
