<?xml version="1.0" encoding="utf-8"?>
<!-- Generator: Adobe Illustrator 22.0.0, SVG Export Plug-In . SVG Version: 6.00 Build 0)  -->
<svg version="1.1" id="图层_1" xmlns="http://www.w3.org/2000/svg" xmlns:xlink="http://www.w3.org/1999/xlink" x="0px" y="0px"
	 viewBox="0 0 16 16" style="enable-background:new 0 0 16 16;" xml:space="preserve">
<style type="text/css">
	.st0{fill:#40B6E0;fill-opacity:0.7;}
	.st1{fill:#9AA7B0;fill-opacity:0.8;}
	.st2{display:none;fill:#231F20;fill-opacity:0.7;}
	.st3{fill:#993399;}
</style>
<g>
	<polygon class="st0" points="1,16 16,16 16,9 1,9 	"/>
	<polygon class="st1" points="7,1 3,5 7,5 	"/>
	<polygon class="st1" points="8,1 8,6 3,6 3,8 13,8 13,1 	"/>
	<path class="st2" d="M3.4,13.6C3.6,13.8,3.8,14,4.3,14C4.8,14,5,13.6,5,13.3V10h1v3.6C6,14.3,5.3,15,4.4,15c-0.8,0-1.3-0.2-1.6-0.7
		L3.4,13.6z"/>
</g>
<g>
	<g>
		<path class="st3" d="M8.8,15.2l-2.1,0l0-0.3c0.1-0.7,0.1-1.5,0.2-2.4C7,11.6,7,10.8,7,10l0-0.3c0,0,0.7,0,0.9,0c0.1,0,0.8,0,0.8,0
			l0,0.3c0,0.4-0.1,0.9-0.1,1.5L8.5,13c0,0.3,0,0.7,0,1l0.4,0c0.6,0,1,0,1.1,0c0.2,0,0.4,0,0.5,0l0.3,0l0,0.3c0,0.2,0,0.5-0.1,0.8
			l0,0.2C10.7,15.2,9.3,15.2,8.8,15.2z"/>
		<path class="st3" d="M8.4,10c0,0.4-0.1,0.9-0.1,1.5L8.2,13c0,0.4,0,0.8,0,1.2l0.6,0c0.6,0,1,0,1.2,0c0.2,0,0.4,0,0.5,0
			c0,0.2,0,0.5-0.1,0.8c-0.6,0-1.2,0-1.6,0l-1.1,0L7,15c0.1-0.7,0.1-1.5,0.2-2.4c0-0.9,0.1-1.7,0.1-2.5c0.2,0,0.5,0,0.6,0
			C8,10,8.2,10,8.4,10 M8.9,9.5l-0.5,0c-0.2,0-0.4,0-0.5,0c-0.2,0-0.4,0-0.6,0l-0.5,0l0,0.5c0,0.8,0,1.6-0.1,2.5
			c0,0.9-0.1,1.7-0.2,2.4l-0.1,0.6l0.6,0l0.7,0l1.1,0c0.4,0,1,0,1.6,0l0.5,0l0-0.5c0-0.3,0-0.5,0.1-0.8l0.1-0.6l-0.6,0
			c-0.2,0-0.4,0-0.5,0c-0.2,0-0.6,0-1.1,0l-0.1,0c0-0.2,0-0.5,0-0.7l0.1-1.5c0-0.6,0.1-1,0.1-1.5L8.9,9.5L8.9,9.5z"/>
	</g>
</g>
</svg>
