<?xml version="1.0" encoding="iso-8859-1"?>
<!-- Generator: Adobe Illustrator 23.0.3, SVG Export Plug-In . SVG Version: 6.00 Build 0)  -->
<svg version="1.1" xmlns="http://www.w3.org/2000/svg" xmlns:xlink="http://www.w3.org/1999/xlink" x="0px" y="0px"
	 viewBox="0 0 16 16" enable-background="new 0 0 16 16" xml:space="preserve">
<g id="&#x56FE;&#x5C42;_1">
</g>
<g id="IDEA_PluginIcon">
</g>
<g id="IDEA_Icons">
</g>
<g id="IDEA_Module">
	<path fill-rule="evenodd" clip-rule="evenodd" fill="#9AA7B0" fill-opacity="0.8" d="M7.484,3.113L6.196,1.824
		C5.804,1.433,5.032,1.113,4.478,1.113H0.55c-0.027,0-0.05,0.022-0.05,0.051v10.949h8v-4h6v-5H7.484z"/>
	<g id="Icon_3_">
		<g>
			<path fill="none" stroke="#FFFFFF" stroke-width="0.7724" stroke-miterlimit="10" d="M9.96,15.514
				c-2.326,0.001-4.212-1.883-4.213-4.209s1.883-4.212,4.209-4.213s4.212,1.883,4.213,4.209c0,0.001,0,0.002,0,0.003
				C14.168,13.628,12.284,15.512,9.96,15.514z"/>
			<g>
				<path fill="#E37668" d="M9.955,7.092c-2.326,0.001-4.21,1.888-4.209,4.213c0,0.783,0.215,1.515,0.587,2.143l5.769-5.769
					C11.474,7.305,10.739,7.091,9.955,7.092z"/>
				<path fill="#11A0D9" d="M12.103,7.679l-5.769,5.769c0.734,1.237,2.083,2.066,3.626,2.065c2.324-0.001,4.208-1.886,4.209-4.21
					c0-0.001,0-0.002,0-0.003C14.168,9.759,13.339,8.412,12.103,7.679z"/>
			</g>
			<g display="none">
				<defs>
					<circle id="SVGID_14_" cx="9.957" cy="11.303" r="3.61"/>
				</defs>
				<clipPath id="SVGID_7_" display="inline">
					<use xlink:href="#SVGID_14_"  overflow="visible"/>
				</clipPath>
				<g display="inline" clip-path="url(#SVGID_7_)">
					<path fill="#FFFFFF" d="M11.035,9.341c0.087-0.273,0.435-0.525,0.838-0.151c0.168,0.156,0.232,0.332,0.191,0.528
						c0.24,0.016,0.412,0.08,0.515,0.191c0.18,0.196,0.167,0.448,0.148,0.572c-0.029,0.194-0.2,0.404-0.437,0.41
						c0.126,0.419,0.197,0.912,0.213,1.479l0.022,1.074c0.208,0.096,0.302,0.318,0.282,0.667c-0.02,0.349-0.275,0.509-0.764,0.479
						c0.074,0.152-0.052,0.247-0.378,0.285c-0.326,0.037-0.724,0.026-1.195-0.035l0.051-0.818c0.611-0.307,1.044-1.063,1.044-1.945
						c0-0.598-3.309-0.558-3.309,0c0,0.915,0.464,1.692,1.111,1.977l0.048,0.787c-0.47,0.06-0.868,0.072-1.195,0.035
						c-0.326-0.038-0.452-0.132-0.377-0.285c-0.49,0.029-0.744-0.131-0.764-0.479c-0.02-0.349,0.074-0.571,0.282-0.667l0.022-1.074
						c0.054-1.996,0.78-3.069,2.175-3.221l0-0.004c0.237-0.021,0.475-0.021,0.711,0.001v0C10.532,9.172,10.791,9.237,11.035,9.341z"
						/>
				</g>
			</g>
		</g>
		<path fill="#11A0D9" stroke="#FFFFFF" stroke-width="0.3862" stroke-miterlimit="10" d="M14.169,8.325
			c-0.681,0-1.234-0.551-1.234-1.232c0-0.681,0.551-1.234,1.232-1.234s1.234,0.551,1.234,1.232c0,0,0,0.001,0,0.001
			C15.402,7.772,14.85,8.324,14.169,8.325z"/>
	</g>
</g>
</svg>
