<svg xmlns="http://www.w3.org/2000/svg" viewBox="0 0 16 16"><defs><style>.cls-1{fill:#9aa7b0;fill-opacity:0.8;fill-rule:evenodd;}.cls-2{fill:none;stroke-width:0.77px;}.cls-2,.cls-6{stroke:#fff;stroke-miterlimit:10;}.cls-3{fill:#e37668;}.cls-4,.cls-6{fill:#11a0d9;}.cls-5{fill:#fff;}.cls-6{stroke-width:0.39px;}</style></defs><title>module</title><g id="IDEA_Module" data-name="IDEA Module"><path class="cls-1" d="M7.48,3.11,6.2,1.82a2.84,2.84,0,0,0-1.72-.71H.55a.05.05,0,0,0-.05,0v11h8v-4h6v-5Z"/><g id="Icon"><path class="cls-2" d="M10,15.51a4.21,4.21,0,1,1,4.21-4.21h0A4.21,4.21,0,0,1,10,15.51Z"/><path class="cls-3" d="M10,7.09a4.22,4.22,0,0,0-3.62,6.36L12.1,7.68A4.22,4.22,0,0,0,10,7.09Z"/><path class="cls-4" d="M12.1,7.68,6.33,13.45a4.22,4.22,0,0,0,7.84-2.15h0A4.2,4.2,0,0,0,12.1,7.68Z"/><path class="cls-5" d="M12.52,13.45l0-1.08a5.33,5.33,0,0,0-.21-1.48.47.47,0,0,0,.44-.41.69.69,0,0,0-.15-.57.73.73,0,0,0-.52-.19.54.54,0,0,0-.19-.53.48.48,0,0,0-.84.15,2.5,2.5,0,0,0-.76-.19h0a3.37,3.37,0,0,0-.71,0h0c-1.4.15-2.12,1.22-2.18,3.22l0,1.08c-.07,0-.11.1-.16.16a3.57,3.57,0,0,0,2.13,1.24h.08l0-.79a2.1,2.1,0,0,1-1.11-2c0-.56,3.3-.6,3.3,0a2.13,2.13,0,0,1-1,1.94l0,.82h.11a3.63,3.63,0,0,0,2.12-1.22A.39.39,0,0,0,12.52,13.45Z"/><path class="cls-6" d="M14.17,8.32A1.23,1.23,0,1,1,15.4,7.09h0A1.23,1.23,0,0,1,14.17,8.32Z"/></g></g></svg>